<svg id="Capa_1" data-name="Capa 1" xmlns="http://www.w3.org/2000/svg" xmlns:xlink="http://www.w3.org/1999/xlink" viewBox="0 0 60 60"><defs><style>.cls-1{fill:none;}.cls-2{clip-path:url(#clip-path);}.cls-3{fill:#2b2c2c;}.cls-4{fill:#fff;}</style><clipPath id="clip-path"><circle class="cls-1" cx="33.69" cy="30.25" r="24.33"/></clipPath></defs><title>logo</title><g class="cls-2"><circle class="cls-3" cx="33.71" cy="30.14" r="24.33"/><path class="cls-4" d="M18,63.51a1.3,1.3,0,0,1-.68-.19,2.67,2.67,0,0,1-1.09-2.21l-.42.51c-.81.93-1.52.9-2,.72a1.92,1.92,0,0,1-1.1-2c-.53.69-1.25,1.3-2.16.88a1.37,1.37,0,0,1-.86-1A3.47,3.47,0,0,1,9.75,59s0-.08,0-.12a2.56,2.56,0,0,1-1.58.74,1.4,1.4,0,0,1-1.09-.43,1.59,1.59,0,0,1-.37-1.27C6.83,57,7.8,55.36,9.64,53c1.2-1.52,2.38-2.86,2.65-3.16a3,3,0,0,1,.87-1.65l.06,0,0-.1h0c.24-.92.86-2.83,1.06-3.46l.6.19c-.41,1.28-.88,2.78-1.06,3.47.14.08.29.19.48.32a9.77,9.77,0,0,0,5.49,1.91l0,.19.42.06a3.21,3.21,0,0,0,0,.77c.07,1.18.09,2.35.09,3.55,0,.35,0,.72,0,1.08A24.27,24.27,0,0,1,20,61.54a2.82,2.82,0,0,1-1.44,1.84A1.43,1.43,0,0,1,18,63.51Zm-1.1-4.71-.05,1.3c0,.93,0,2.21.8,2.68a.68.68,0,0,0,.68,0,2.17,2.17,0,0,0,1.08-1.39,23.51,23.51,0,0,0,.3-5.25c0-.36,0-.73,0-1.09,0-1.19,0-2.35-.09-3.51,0-.15,0-.3,0-.44a10.34,10.34,0,0,1-5.58-2,4.32,4.32,0,0,0-.52-.34,3.32,3.32,0,0,0-.57,1.3v.08l-.06.06C11.35,51.84,7.52,56.39,7.36,58a1,1,0,0,0,.21.77.76.76,0,0,0,.6.23c.74,0,1.46-.82,2-1.41L11.52,56l-.76,1.76a6.69,6.69,0,0,0-.39,1.3,3,3,0,0,0,0,1,.73.73,0,0,0,.49.57c.72.34,1.32-.5,1.93-1.47l.16-.26.84-1.3-.26,1.52c-.19,1.12-.3,2.24.56,2.59.39.16.81,0,1.26-.54a7.21,7.21,0,0,0,.93-1.28Zm-3.46-10Z"/><path class="cls-4" d="M42,28.49l.11-.73c0-.05,0-.54-.9-1l-.42-.2L47,21.73h.09a1.28,1.28,0,0,1,1.29,1.37v.15Zm-.15-2a1.88,1.88,0,0,1,.72.78L47.78,23a.7.7,0,0,0-.61-.68Z"/><path class="cls-4" d="M29.17,38c-.81.78-1.35,1.8-2.19,2.54-.53.47-2.08,1.77-2.76.85a1.72,1.72,0,0,1-.27-1l7.13-5.73a3.86,3.86,0,0,0,1.18-.41A1.63,1.63,0,0,0,33.18,33l8-6.41c1.23.65.95,1.41.95,1.41L31.46,37A3.06,3.06,0,0,0,29.17,38Z"/><path class="cls-4" d="M24.86,42h-.13a1,1,0,0,1-.73-.42,1.94,1.94,0,0,1-.32-1.13v-.13L31,34.48l.07,0a3.26,3.26,0,0,0,1.09-.37A1.39,1.39,0,0,0,32.91,33V32.9l8.25-6.59.16.08c1.42.75,1.09,1.7,1.07,1.74l0,.07L31.54,37.25l-.11,0a2.89,2.89,0,0,0-2.07,1h0a9.45,9.45,0,0,0-1,1.18,9.58,9.58,0,0,1-1.2,1.36A4,4,0,0,1,24.86,42Zm-.63-1.43a1.4,1.4,0,0,0,.2.68.54.54,0,0,0,.36.21c.31,0,.91-.14,2-1.11a8.21,8.21,0,0,0,1.13-1.28A10.23,10.23,0,0,1,29,37.85a3.42,3.42,0,0,1,2.38-1.16l10.53-8.8c0-.15,0-.54-.67-.93l-7.79,6.22a2,2,0,0,1-1,1.37,3.66,3.66,0,0,1-1.2.43Z"/><path class="cls-4" d="M21.42,34.32,21,34A4.1,4.1,0,0,1,24,32.35a3.58,3.58,0,0,1,1.5.16l-.18.48.09-.24-.09.24A3.51,3.51,0,0,0,21.42,34.32Z"/><path class="cls-4" d="M19.4,36.88A7,7,0,0,1,20,35.55a9.48,9.48,0,0,1,.78-1.2,5.79,5.79,0,0,1,1-1,3.1,3.1,0,0,1,.61-.41,2.22,2.22,0,0,1,.7-.23,3.42,3.42,0,0,0-.55.44c-.17.16-.33.32-.48.49-.3.34-.59.7-.87,1.07l-.85,1.1C20,36.14,19.72,36.52,19.4,36.88Z"/><path class="cls-4" d="M21.36,37.39a3.09,3.09,0,0,1,.23-.78,6.53,6.53,0,0,1,.35-.7,5.64,5.64,0,0,1,.46-.63l.28-.28a1.64,1.64,0,0,1,.33-.26,3.27,3.27,0,0,1-.2.79,5.08,5.08,0,0,1-.35.7,4.77,4.77,0,0,1-.48.63A2.67,2.67,0,0,1,21.36,37.39Z"/><path class="cls-4" d="M18.91,35.36l-.4-.33s.36-.42.78-.84.46-.42.89-.78l.12-.09a2.38,2.38,0,0,1,2.44-.57l-.21.47.11-.24-.11.24a1.93,1.93,0,0,0-1.9.5l-.12.1a9,9,0,0,0-.86.75C19.25,35,18.91,35.36,18.91,35.36Z"/><path class="cls-4" d="M17.65,36.51a3.71,3.71,0,0,1,.19-.46,3.62,3.62,0,0,1,.24-.43,5,5,0,0,1,.59-.78,5.06,5.06,0,0,1,.72-.67,3,3,0,0,1,.87-.48,7.81,7.81,0,0,1-.59.77c-.2.25-.4.49-.61.72s-.44.47-.67.69A6.54,6.54,0,0,1,17.65,36.51Z"/><path class="cls-4" d="M20.13,51l-.63-.09a2.85,2.85,0,0,1,1.37-2,18.26,18.26,0,0,1,3.2-1.64c3.25-1.35,6.86-8.46,7.61-10-.67-.21-1.39.09-2.29.94a9.71,9.71,0,0,0-1,1.18,9.06,9.06,0,0,1-1.2,1.37A3.67,3.67,0,0,1,24.72,42a1.09,1.09,0,0,1-.76-.44,2,2,0,0,1-.32-1.16,2.54,2.54,0,0,1,0-.41c.76-4,2.22-4.67,3-5l.08,0a6.85,6.85,0,0,1,1.9-.28A9.39,9.39,0,0,0,32.1,34c.65-.4.77-.82.77-1.08v-.08c-1.8-.12-6-.31-7.06.12l-.09,0h0c-.12,0-1.24.17-3.2,3.28l-.54-.34a11.22,11.22,0,0,1,2.69-3.15,2.07,2.07,0,0,1,1-.42c1.57-.56,7.26-.14,7.5-.12l.19,0,.08.17a1.3,1.3,0,0,1,.09.49,1.92,1.92,0,0,1-1.07,1.63,9.72,9.72,0,0,1-3.74.73A7.85,7.85,0,0,0,27,35.5l-.09,0c-.68.33-2,.93-2.64,4.59a1.36,1.36,0,0,0,0,.29,1.37,1.37,0,0,0,.2.78.42.42,0,0,0,.32.19c.25,0,.83-.08,2-1.09A8.71,8.71,0,0,0,27.89,39,10.33,10.33,0,0,1,29,37.78c.44-.43,1.8-1.72,3.3-.93l.26.14-.13.28c-.17.36-4.22,9-8.08,10.62a16.91,16.91,0,0,0-3.08,1.58A2.16,2.16,0,0,0,20.13,51Z"/><path class="cls-4" d="M14.82,45.07l-.6-.19,0-.13c.91-5.85,2.88-10.69,3.68-11.86a14.61,14.61,0,0,1,3.17-2.83l.13-.09.16.06a.87.87,0,0,1,.53.64,1.49,1.49,0,0,1,0,.21,3.06,3.06,0,0,1-1.17,1.93A4.89,4.89,0,0,0,20,34.09h0l-.63.07v0a4.24,4.24,0,0,1,.9-1.69l0,0,0,0c.85-.83,1-1.29,1-1.49,0,0,0-.06,0-.08l0-.09a13.07,13.07,0,0,0-2.82,2.53c-.82,1.21-2.72,6.13-3.58,11.63v0Z"/><path class="cls-4" d="M39.59,25.23l-.27-.72a2.92,2.92,0,0,0-2.17-2.17l-.72-.27.72-.27a2.94,2.94,0,0,0,2.17-2.18l.27-.71.27.71A2.94,2.94,0,0,0,42,21.8l.72.27-.72.27a2.92,2.92,0,0,0-2.17,2.17ZM38,22.07a3,3,0,0,1,1.6,1.59,3,3,0,0,1,1.6-1.59,3,3,0,0,1-1.6-1.6A3,3,0,0,1,38,22.07Z"/><path class="cls-4" d="M49.37,21.65,49.13,21a2.59,2.59,0,0,0-1.92-1.92l-.63-.24.63-.23a2.59,2.59,0,0,0,1.92-1.92l.24-.63.24.63a2.59,2.59,0,0,0,1.92,1.92l.63.23-.63.24A2.59,2.59,0,0,0,49.61,21ZM48,18.86a2.66,2.66,0,0,1,1.41,1.41,2.66,2.66,0,0,1,1.41-1.41,2.61,2.61,0,0,1-1.41-1.4A2.61,2.61,0,0,1,48,18.86Z"/><path class="cls-4" d="M50.45,28.83l-.22-.59a2.38,2.38,0,0,0-1.78-1.77l-.58-.22.58-.22a2.41,2.41,0,0,0,1.78-1.78l.22-.59.22.59A2.41,2.41,0,0,0,52.45,26l.58.22-.58.22a2.38,2.38,0,0,0-1.78,1.77Zm-1.31-2.58a2.42,2.42,0,0,1,1.31,1.3,2.42,2.42,0,0,1,1.31-1.3,2.47,2.47,0,0,1-1.31-1.31A2.47,2.47,0,0,1,49.14,26.25Z"/></g></svg>